<svg viewBox="0 0 32 32" fill="none" xmlns="http://www.w3.org/2000/svg">
  <defs>
    <linearGradient id="bucketGrad" x1="0%" y1="0%" x2="100%" y2="100%">
      <stop offset="0%" style="stop-color:#14b8a6"/>
      <stop offset="100%" style="stop-color:#06b6d4"/>
    </linearGradient>
    <linearGradient id="heartGrad" x1="0%" y1="0%" x2="100%" y2="100%">
      <stop offset="0%" style="stop-color:#f59e0b"/>
      <stop offset="100%" style="stop-color:#ef4444"/>
    </linearGradient>
  </defs>
  
  <!-- Background Circle -->
  <circle cx="16" cy="16" r="15" fill="url(#bucketGrad)" opacity="0.15"/>
  
  <!-- Bucket Shape -->
  <path d="M8 12 L24 12 L22 26 L10 26 Z" fill="url(#bucketGrad)" stroke="none"/>
  <path d="M8 12 L24 12 L23 14 L9 14 Z" fill="url(#bucketGrad)" opacity="0.8"/>
  
  <!-- Bucket Handle -->
  <path d="M7 12 Q7 8 11 8 L21 8 Q25 8 25 12" stroke="url(#bucketGrad)" stroke-width="2" fill="none" stroke-linecap="round"/>
  
  <!-- Family Hearts -->
  <g transform="translate(16, 18)">
    <!-- Parent Heart 1 -->
    <path d="M-4,-2 C-4,-3 -3,-4 -2,-4 C-1,-4 0,-3 0,-2 C0,-3 1,-4 2,-4 C3,-4 4,-3 4,-2 C4,-1 0,3 0,3 C0,3 -4,-1 -4,-2 Z" 
          fill="url(#heartGrad)" opacity="0.9" transform="scale(0.6)"/>
    
    <!-- Parent Heart 2 -->
    <path d="M-2,1 C-2,0 -1,-1 0,-1 C1,-1 2,0 2,1 C2,2 0,4 0,4 C0,4 -2,2 -2,1 Z" 
          fill="url(#heartGrad)" opacity="0.8" transform="scale(0.5)"/>
    
    <!-- Child Heart 1 -->
    <path d="M2,-1 C2,-1.5 2.5,-2 3,-2 C3.5,-2 4,-1.5 4,-1 C4,-0.5 3,1 3,1 C3,1 2,-0.5 2,-1 Z" 
          fill="url(#heartGrad)" opacity="0.7" transform="scale(0.4)"/>
    
    <!-- Child Heart 2 -->
    <path d="M-4,0 C-4,-0.5 -3.5,-1 -3,-1 C-2.5,-1 -2,-0.5 -2,0 C-2,0.5 -3,2 -3,2 C-3,2 -4,0.5 -4,0 Z" 
          fill="url(#heartGrad)" opacity="0.6" transform="scale(0.4)"/>
  </g>
</svg>